<svg xmlns="http://www.w3.org/2000/svg" viewBox="0 0 1072.111 746.824"><title>Cheiro e Cor</title>
    <path d="M461.562,757.244a14.019,14.019,0,0,0-1.652-5.655,12.473,12.473,0,0,0-3.535-4.051,15.969,15.969,0,0,0-5.033-2.453,21.851,21.851,0,0,0-6.177-.85,16.879,16.879,0,0,0-8.013,1.843,17.608,17.608,0,0,0-5.839,4.9,22.089,22.089,0,0,0-3.58,6.972,26.719,26.719,0,0,0-1.232,8.061,34.331,34.331,0,0,0,1.137,9.047,20.511,20.511,0,0,0,3.484,7.207,16.208,16.208,0,0,0,5.846,4.757,18.422,18.422,0,0,0,8.2,1.7,16.944,16.944,0,0,0,6.265-1.133,16.756,16.756,0,0,0,5.088-3.105,16.08,16.08,0,0,0,3.631-4.764,19.086,19.086,0,0,0,1.88-6.078h3.584a22.762,22.762,0,0,1-2.351,7.73,19.079,19.079,0,0,1-4.525,5.7,19.638,19.638,0,0,1-6.222,3.535,22.023,22.023,0,0,1-7.35,1.222,22.283,22.283,0,0,1-10.136-2.12,19.393,19.393,0,0,1-6.876-5.7,24.078,24.078,0,0,1-3.955-8.241,36.864,36.864,0,0,1-1.277-9.753,31.269,31.269,0,0,1,1.461-9.617,23.593,23.593,0,0,1,4.286-7.917,20.314,20.314,0,0,1,6.983-5.368,21.847,21.847,0,0,1,9.514-1.979,26.7,26.7,0,0,1,7.4.986,19.089,19.089,0,0,1,6.126,2.969,15.427,15.427,0,0,1,4.381,5.043,18.024,18.024,0,0,1,2.072,7.116Z"
          transform="translate(-76.861 -45.005)" style="fill:#595a5c"/>
    <path d="M483.053,766.479a31.745,31.745,0,0,1,1.46-9.753,24.67,24.67,0,0,1,4.286-8.061,20.342,20.342,0,0,1,6.972-5.511,23.4,23.4,0,0,1,19.035,0,20.41,20.41,0,0,1,6.983,5.511,24.67,24.67,0,0,1,4.286,8.061,31.958,31.958,0,0,1,1.461,9.753,32.388,32.388,0,0,1-1.461,9.8,23.964,23.964,0,0,1-4.286,8.057,20.643,20.643,0,0,1-6.983,5.467,23.389,23.389,0,0,1-19.035,0,20.573,20.573,0,0,1-6.972-5.467,23.964,23.964,0,0,1-4.286-8.057,32.171,32.171,0,0,1-1.46-9.8m3.579,0a28.3,28.3,0,0,0,1.222,8.337,22.583,22.583,0,0,0,3.583,7.115,17.342,17.342,0,0,0,5.846,4.948,18.323,18.323,0,0,0,16.022,0,17.385,17.385,0,0,0,5.839-4.948,22.514,22.514,0,0,0,3.58-7.115,28.824,28.824,0,0,0,0-16.674,22.61,22.61,0,0,0-3.58-7.115,17.385,17.385,0,0,0-5.839-4.948,18.332,18.332,0,0,0-16.022,0,17.342,17.342,0,0,0-5.846,4.948,22.679,22.679,0,0,0-3.583,7.115,28.3,28.3,0,0,0-1.222,8.337"
          transform="translate(-76.861 -45.005)" style="fill:#595a5c"/>
    <path d="M548.923,774.587a14.912,14.912,0,0,0,1.508,5.979A14.533,14.533,0,0,0,553.879,785a14.385,14.385,0,0,0,4.948,2.778,19.19,19.19,0,0,0,6.122.945,32.359,32.359,0,0,0,5.044-.427,17.671,17.671,0,0,0,4.992-1.548,10.4,10.4,0,0,0,3.819-3.161,8.407,8.407,0,0,0,1.5-5.139,7.583,7.583,0,0,0-2.443-6.122,17.159,17.159,0,0,0-6.173-3.208,62.376,62.376,0,0,0-8.013-1.836,40.934,40.934,0,0,1-8.009-2.119,16.278,16.278,0,0,1-6.174-4.01q-2.45-2.589-2.454-7.587a10.527,10.527,0,0,1,1.6-5.978,11.916,11.916,0,0,1,4.1-3.819,18.575,18.575,0,0,1,5.607-2.027,31.852,31.852,0,0,1,6.225-.611,28.417,28.417,0,0,1,7.067.843,15.347,15.347,0,0,1,5.7,2.741,12.967,12.967,0,0,1,3.763,4.8,16.5,16.5,0,0,1,1.369,7.068h-3.584a13.461,13.461,0,0,0-1.078-5.655,9.857,9.857,0,0,0-3.02-3.819,13.266,13.266,0,0,0-4.566-2.17,21.969,21.969,0,0,0-5.654-.707,26.213,26.213,0,0,0-4.952.479,14.174,14.174,0,0,0-4.474,1.6,10.132,10.132,0,0,0-3.256,2.922,7.281,7.281,0,0,0-1.269,4.333,7.409,7.409,0,0,0,1.412,4.721,10.122,10.122,0,0,0,3.724,2.866,25.27,25.27,0,0,0,5.187,1.747c1.913.434,3.845.879,5.791,1.317q3.582.667,6.74,1.556a18.867,18.867,0,0,1,5.463,2.454,11.067,11.067,0,0,1,3.631,4,13.045,13.045,0,0,1,1.318,6.218,11.059,11.059,0,0,1-1.789,6.5,13.69,13.69,0,0,1-4.525,4.1,19.016,19.016,0,0,1-6.074,2.167,36.056,36.056,0,0,1-6.552.61,26.1,26.1,0,0,1-7.678-1.078,17.505,17.505,0,0,1-6.181-3.3,15.847,15.847,0,0,1-4.143-5.423,18.37,18.37,0,0,1-1.6-7.443Z"
          transform="translate(-76.861 -45.005)" style="fill:#595a5c"/>
    <path d="M603.963,742.259h3.58v9.893h.184a12.981,12.981,0,0,1,1.986-4.286,15.184,15.184,0,0,1,3.437-3.536,16.656,16.656,0,0,1,4.521-2.358,16.252,16.252,0,0,1,5.232-.843,18.241,18.241,0,0,1,6.033.891,14.524,14.524,0,0,1,4.338,2.358,11.824,11.824,0,0,1,2.825,3.3,12.76,12.76,0,0,1,1.417,3.723h.18a17.719,17.719,0,0,1,5.8-7.678q3.631-2.594,9.569-2.59a18.006,18.006,0,0,1,6.074.986,12.8,12.8,0,0,1,4.813,3.017,13.847,13.847,0,0,1,3.153,5.14,21.477,21.477,0,0,1,1.129,7.347V790.7h-3.576V757.53a15.542,15.542,0,0,0-1.413-7.258,11.374,11.374,0,0,0-3.351-4.01,9.567,9.567,0,0,0-3.86-1.693,19.127,19.127,0,0,0-2.969-.335,16.009,16.009,0,0,0-6.081,1.137,12.912,12.912,0,0,0-4.8,3.392,15.807,15.807,0,0,0-3.153,5.607,23.919,23.919,0,0,0-1.137,7.678V790.7h-3.579V757.53a15.944,15.944,0,0,0-1.369-7.211,10.854,10.854,0,0,0-3.2-4.01,9.615,9.615,0,0,0-3.771-1.692,16.783,16.783,0,0,0-3.064-.383,14.805,14.805,0,0,0-5.272,1.042,14.586,14.586,0,0,0-5,3.2,16.153,16.153,0,0,0-3.676,5.559,20.733,20.733,0,0,0-1.416,8.013V790.7h-3.58Z"
          transform="translate(-76.861 -45.005)" style="fill:#595a5c"/>
    <path d="M691.516,766.948v.57a28.4,28.4,0,0,0,1.133,8.1A20.821,20.821,0,0,0,696,782.41a16.051,16.051,0,0,0,5.574,4.614,17.053,17.053,0,0,0,7.8,1.7q7.279,0,11.53-3.823a19.918,19.918,0,0,0,5.861-10.6h3.576q-1.6,8.482-6.928,13t-14.087,4.522a21.364,21.364,0,0,1-9.378-1.932,19.1,19.1,0,0,1-6.684-5.272,22.452,22.452,0,0,1-4.014-7.917,35.436,35.436,0,0,1-1.317-9.856A34.475,34.475,0,0,1,689.3,757.1a24.7,24.7,0,0,1,4.1-8.193,20.357,20.357,0,0,1,6.839-5.655,22.788,22.788,0,0,1,18.66-.239,18.8,18.8,0,0,1,6.545,5.139,22.778,22.778,0,0,1,4.011,7.535,30.309,30.309,0,0,1,1.365,9.19c0,.317-.015.673-.048,1.086s-.048.739-.048.986Zm35.624-3.106a28.844,28.844,0,0,0-1.328-7.5,18.566,18.566,0,0,0-3.352-6.218,16.686,16.686,0,0,0-5.382-4.286,15.834,15.834,0,0,0-7.237-1.6,16.743,16.743,0,0,0-13.218,5.986,19.11,19.11,0,0,0-3.5,6.265,29.236,29.236,0,0,0-1.508,7.354Zm-9.705-41.937h4.805L709.613,735.1h-3.5Z"
          transform="translate(-76.861 -45.005)" style="fill:#595a5c"/>
    <path d="M768.227,745.372H757.671V779.2a13.149,13.149,0,0,0,.663,4.621,5.275,5.275,0,0,0,2.023,2.59,7.192,7.192,0,0,0,3.3,1.082,33.779,33.779,0,0,0,4.47.095V790.7a33.286,33.286,0,0,1-5.32-.048,10.747,10.747,0,0,1-4.573-1.413,8.269,8.269,0,0,1-3.153-3.535,13.321,13.321,0,0,1-.993-6.5V745.372h-8.951v-3.113h8.951v-15.08h3.579v15.08h10.556Z"
          transform="translate(-76.861 -45.005)" style="fill:#595a5c"/>
    <path d="M786.983,723.406h3.58v9.713h-3.58Zm0,18.852h3.58V790.7h-3.58Z"
          transform="translate(-76.861 -45.005)" style="fill:#595a5c"/>
    <path d="M849.751,757.244a14.051,14.051,0,0,0-1.652-5.655,12.558,12.558,0,0,0-3.536-4.051,16,16,0,0,0-5.04-2.453,21.761,21.761,0,0,0-6.17-.85,16.881,16.881,0,0,0-8.013,1.843,17.643,17.643,0,0,0-5.846,4.9,22.212,22.212,0,0,0-3.579,6.972,26.683,26.683,0,0,0-1.226,8.061,34.338,34.338,0,0,0,1.13,9.047,20.632,20.632,0,0,0,3.484,7.207,16.216,16.216,0,0,0,5.846,4.757,18.477,18.477,0,0,0,8.2,1.7,16.8,16.8,0,0,0,11.354-4.238,16.1,16.1,0,0,0,3.631-4.764,19.6,19.6,0,0,0,1.88-6.078H853.8a22.9,22.9,0,0,1-2.358,7.73,18.919,18.919,0,0,1-4.518,5.7,19.667,19.667,0,0,1-6.228,3.535,21.954,21.954,0,0,1-7.344,1.222,22.258,22.258,0,0,1-10.135-2.12,19.327,19.327,0,0,1-6.877-5.7,24.054,24.054,0,0,1-3.962-8.241,36.862,36.862,0,0,1-1.269-9.753,30.97,30.97,0,0,1,1.46-9.617,23.334,23.334,0,0,1,4.287-7.917,20.275,20.275,0,0,1,6.975-5.368,21.882,21.882,0,0,1,9.521-1.979,26.664,26.664,0,0,1,7.391.986,19.2,19.2,0,0,1,6.133,2.969,15.643,15.643,0,0,1,4.382,5.043,18.023,18.023,0,0,1,2.071,7.116Z"
          transform="translate(-76.861 -45.005)" style="fill:#595a5c"/>
    <path d="M871.241,766.479a31.926,31.926,0,0,1,1.453-9.753,24.67,24.67,0,0,1,4.286-8.061,20.344,20.344,0,0,1,6.983-5.511,23.4,23.4,0,0,1,19.035,0,20.342,20.342,0,0,1,6.972,5.511,24.539,24.539,0,0,1,4.286,8.061,31.745,31.745,0,0,1,1.46,9.753,32.171,32.171,0,0,1-1.46,9.8,23.841,23.841,0,0,1-4.286,8.057A20.573,20.573,0,0,1,903,789.8a23.389,23.389,0,0,1-19.035,0,20.576,20.576,0,0,1-6.983-5.467,23.964,23.964,0,0,1-4.286-8.057,32.355,32.355,0,0,1-1.453-9.8m3.572,0a28.2,28.2,0,0,0,1.232,8.337,22.514,22.514,0,0,0,3.58,7.115,17.275,17.275,0,0,0,5.846,4.948,18.308,18.308,0,0,0,16.015,0,17.342,17.342,0,0,0,5.846-4.948,22.583,22.583,0,0,0,3.583-7.115,29.05,29.05,0,0,0,0-16.674,22.679,22.679,0,0,0-3.583-7.115,17.342,17.342,0,0,0-5.846-4.948,18.317,18.317,0,0,0-16.015,0,17.275,17.275,0,0,0-5.846,4.948,22.61,22.61,0,0,0-3.58,7.115,28.208,28.208,0,0,0-1.232,8.337"
          transform="translate(-76.861 -45.005)" style="fill:#595a5c"/>
    <path d="M937.112,774.587a14.9,14.9,0,0,0,1.508,5.979,14.233,14.233,0,0,0,8.385,7.211,19.222,19.222,0,0,0,6.125.945,32.191,32.191,0,0,0,5.04-.427,17.578,17.578,0,0,0,5-1.548,10.4,10.4,0,0,0,3.819-3.161,8.41,8.41,0,0,0,1.509-5.139,7.554,7.554,0,0,0-2.454-6.122,17.053,17.053,0,0,0-6.17-3.208,62.454,62.454,0,0,0-8.013-1.836,40.882,40.882,0,0,1-8-2.119,16.356,16.356,0,0,1-6.18-4.01q-2.451-2.589-2.447-7.587a10.58,10.58,0,0,1,1.6-5.978,12,12,0,0,1,4.106-3.819,18.471,18.471,0,0,1,5.606-2.027,31.842,31.842,0,0,1,6.218-.611,28.44,28.44,0,0,1,7.067.843,15.287,15.287,0,0,1,5.7,2.741,12.986,12.986,0,0,1,3.771,4.8,16.668,16.668,0,0,1,1.368,7.068h-3.583a13.41,13.41,0,0,0-1.089-5.655,9.814,9.814,0,0,0-3.009-3.819,13.381,13.381,0,0,0-4.573-2.17,22,22,0,0,0-5.655-.707,26.094,26.094,0,0,0-4.945.479,14.117,14.117,0,0,0-4.481,1.6,10.1,10.1,0,0,0-3.248,2.922,7.281,7.281,0,0,0-1.27,4.333,7.409,7.409,0,0,0,1.413,4.721,10.027,10.027,0,0,0,3.716,2.866,25.414,25.414,0,0,0,5.187,1.747c1.913.434,3.852.879,5.8,1.317,2.387.445,4.628.96,6.739,1.556a18.959,18.959,0,0,1,5.464,2.454,11.076,11.076,0,0,1,3.631,4,13.14,13.14,0,0,1,1.317,6.218,11.018,11.018,0,0,1-1.795,6.5,13.755,13.755,0,0,1-4.518,4.1,19.158,19.158,0,0,1-6.085,2.167,36,36,0,0,1-6.549.61,26.182,26.182,0,0,1-7.682-1.078,17.493,17.493,0,0,1-6.169-3.3,15.615,15.615,0,0,1-4.143-5.423,18.158,18.158,0,0,1-1.6-7.443Z"
          transform="translate(-76.861 -45.005)" style="fill:#595a5c"/>
    <path d="M987.556,238.964c-72.16-10.522-84.938-81.932-72.16-127.784,48.106,15.033,87.1,54.222,90.971,98.274-.173-17.317-.03-35.506,3.738-52.422,19.215-86.207,114.325-108.579,123.276-107.49,2.741,16.236,58.729,195.375-109.653,194.72-22.42,31.316-19.635,66.112-9.113,106.7"
          transform="translate(-76.861 -45.005)"
          style="fill:none;stroke:#595a5c;stroke-miterlimit:10;stroke-width:9px"/>
    <path d="M1107.823,102.16c-11.828.247-66.145,58.629-62.389,100.644"
          transform="translate(-76.861 -45.005)"
          style="fill:none;stroke:#595a5c;stroke-miterlimit:10;stroke-width:9px"/>
    <path d="M940.86,156.993c-1.707,6.056,19.591,42.729,41.548,47.32" transform="translate(-76.861 -45.005)"
          style="fill:none;stroke:#595a5c;stroke-miterlimit:10;stroke-width:9px"/>
    <path d="M959.045,691.921,933,653.049A88.621,88.621,0,0,1,882.072,668.6H860.686v23.711H849.807v-203.7h32.265c49.759,0,90.188,40.039,90.188,89.8a90.471,90.471,0,0,1-30.709,68.033l30.709,45.48Zm-21-57.146a78.616,78.616,0,0,0,17.1-25.268,79.886,79.886,0,0,0,0-61.815,78.775,78.775,0,0,0-17.1-25.267,78.823,78.823,0,0,0-55.977-22.935H860.686V657.71h21.386a78.745,78.745,0,0,0,55.977-22.935"
          transform="translate(-76.861 -45.005)" style="fill:#595a5c"/>
    <path d="M835,590.066c0,56.374-45.488,102.244-101.854,102.244S631.295,646.44,631.295,590.066a101.854,101.854,0,0,1,203.708,0m-10.887,0a90.966,90.966,0,1,0-181.931,0c0,50.539,40.815,91.354,90.964,91.354s90.967-40.815,90.967-91.354"
          transform="translate(-76.861 -45.005)" style="fill:#595a5c"/>
    <path d="M611.055,641.771a101.989,101.989,0,1,1-.39-103.013l-8.933,6.218a74.76,74.76,0,0,0-14.388-18.66,80.3,80.3,0,0,0-28.763-19.44,86.26,86.26,0,0,0-35.381-7.388,93.66,93.66,0,0,0-64.527,26.828,91.644,91.644,0,0,0-19.44,99.517,89.335,89.335,0,0,0,48.589,48.593A91.087,91.087,0,0,0,523.2,681.42a90.615,90.615,0,0,0,78.532-45.09Z"
          transform="translate(-76.861 -45.005)" style="fill:#595a5c"/>
    <path d="M381.079,588.883a24.648,24.648,0,0,1-3.671,19.05A24.142,24.142,0,0,1,361.5,618.948l-9.44,2.1a76.864,76.864,0,0,1,7.509,73.772A78.65,78.65,0,0,1,318.5,735.9a76.985,76.985,0,0,1-60.133,0,78.669,78.669,0,0,1-41.08-41.08,74.168,74.168,0,0,1-6.115-30.073,76.183,76.183,0,0,1,33.91-63.974L279.693,577.7a36.328,36.328,0,0,1-20.456-12.763,35.4,35.4,0,0,1-8.211-23.244A35.881,35.881,0,0,1,254,527.178a37.854,37.854,0,0,1,19.925-19.929,36.888,36.888,0,0,1,29.017,0,37.9,37.9,0,0,1,19.933,19.929,36.015,36.015,0,0,1,2.969,14.51,35.616,35.616,0,0,1-4.544,17.829,36.264,36.264,0,0,1-12.236,12.935l-56.985,38.111A62.8,62.8,0,0,0,230.92,633.98a65.3,65.3,0,0,0-7.513,30.764,63.031,63.031,0,0,0,5.066,25.349,66.1,66.1,0,0,0,34.609,34.616,63.087,63.087,0,0,0,25.345,5.066,64.348,64.348,0,0,0,25.525-5.066,65.605,65.605,0,0,0,34.789-34.616,63.15,63.15,0,0,0,5.066-25.349,62.463,62.463,0,0,0-14.683-40.9l-9.79,2.1a12.906,12.906,0,0,0-10.143,15.732,4.807,4.807,0,0,1-.7,4.367,6.906,6.906,0,0,1-3.844,2.619,3.039,3.039,0,0,1-1.4.35q-4.9,0-5.942-4.893a24.655,24.655,0,0,1,3.672-19.05,24.1,24.1,0,0,1,15.9-11.015l32.162-6.994a12.351,12.351,0,0,0,8.219-5.592,13.38,13.38,0,0,0,1.921-10.14,4.819,4.819,0,0,1,.7-4.367,7.007,7.007,0,0,1,3.844-2.623,5.266,5.266,0,0,1,4.551.7,6.708,6.708,0,0,1,2.8,3.845m-117.824-47.2A24.454,24.454,0,0,0,270.6,559.34a24.915,24.915,0,0,0,35.661,0,25.155,25.155,0,1,0-43.008-17.652"
          transform="translate(-76.861 -45.005)" style="fill:#595a5c"/>
    <path d="M964.833,355.992c0,56.374-45.476,102.244-101.854,102.244s-101.842-45.87-101.842-102.244a101.848,101.848,0,0,1,203.7,0m-10.886,0a90.966,90.966,0,1,0-181.932,0c0,50.539,40.816,91.354,90.964,91.354s90.968-40.815,90.968-91.354"
          transform="translate(-76.861 -45.005)" style="fill:#595a5c"/>
    <path d="M730.41,457.847l-26.047-38.873a88.617,88.617,0,0,1-50.925,15.548H632.052v23.711H621.173v-203.7h32.265c49.759,0,90.188,40.038,90.188,89.8a90.474,90.474,0,0,1-30.709,68.033l30.709,45.48Zm-21-57.147a78.6,78.6,0,0,0,17.1-25.267,79.886,79.886,0,0,0,0-61.815,78.779,78.779,0,0,0-17.1-25.268,78.823,78.823,0,0,0-55.976-22.935H632.052V423.636h21.386A78.74,78.74,0,0,0,709.414,400.7"
          transform="translate(-76.861 -45.005)" style="fill:#595a5c"/>
    <rect x="508.155" y="209.142" width="10.886" height="204.087" style="fill:#595a5c"/>
    <polygon
            points="378.689 220.41 378.689 332.374 451.383 332.374 451.383 343.253 378.689 343.253 378.689 402.342 490.256 402.342 490.256 413.232 367.803 413.232 367.803 412.842 367.803 402.342 367.803 343.253 367.803 332.374 367.803 220.41 367.803 209.531 378.689 209.531 490.256 209.531 490.256 220.41 378.689 220.41"
            style="fill:#595a5c"/>
    <polygon
            points="349.506 209.142 349.506 379.407 349.506 390.297 349.506 413.228 338.627 413.228 338.627 343.261 220.445 343.261 220.445 413.228 209.559 413.228 209.559 390.297 209.559 379.407 209.559 209.142 220.445 209.142 220.445 332.374 338.627 332.374 338.627 209.142 349.506 209.142"
            style="fill:#595a5c"/>
    <path d="M266.566,407.7a101.989,101.989,0,1,1-.39-103.013l-8.932,6.218a74.763,74.763,0,0,0-14.389-18.66,80.3,80.3,0,0,0-28.763-19.44,86.255,86.255,0,0,0-35.377-7.388,84.966,84.966,0,0,0-35.381,7.388,85.278,85.278,0,0,0-29.149,19.44,91.638,91.638,0,0,0-19.44,99.517,98.2,98.2,0,0,0,19.44,29.16,98.042,98.042,0,0,0,29.149,19.433,91.091,91.091,0,0,0,35.381,6.994,90.621,90.621,0,0,0,78.529-45.09Z"
          transform="translate(-76.861 -45.005)" style="fill:#595a5c"/>
</svg>